<?xml version="1.0" encoding="utf-8"?>
<!-- Generator: Adobe Illustrator 24.3.0, SVG Export Plug-In . SVG Version: 6.00 Build 0)  -->
<svg version="1.1" id="Layer_1" xmlns="http://www.w3.org/2000/svg" xmlns:xlink="http://www.w3.org/1999/xlink" x="0px" y="0px"
	 viewBox="0 0 163.5 54.1" style="enable-background:new 0 0 163.5 54.1;" xml:space="preserve">
<style type="text/css">
	.st0{fill:#FFFFFF;enable-background:new    ;}
</style>
<path class="st0" d="M75.2,33.5h-7.9l-1.3,3.7h-5.4l7.6-21.1h5.9l7.6,21.1h-5.4L75.2,33.5z M73.9,29.5l-2.6-7.7l-2.6,7.7H73.9z
	 M99.1,22.2c1.2,1.3,1.8,3,1.8,5.2v9.8h-5.1v-9.1c0-1.1-0.3-2-0.9-2.6c-0.6-0.6-1.4-0.9-2.3-0.9c-1,0-1.8,0.3-2.3,0.9
	c-0.6,0.6-0.9,1.5-0.9,2.6v9.1h-5.1V20.4h5.1v2.2c0.5-0.7,1.2-1.3,2.1-1.8c0.9-0.4,1.9-0.6,3-0.6C96.4,20.3,97.9,20.9,99.1,22.2z
	 M130.8,22.1c1.2,1.3,1.8,3,1.8,5.2v9.8h-5.1v-9.1c0-1.1-0.3-1.9-0.9-2.5s-1.4-0.9-2.4-0.9c-1,0-1.8,0.3-2.4,0.9s-0.9,1.4-0.9,2.5
	v9.1H116v-9.1c0-1.1-0.3-1.9-0.9-2.5c-0.6-0.6-1.4-0.9-2.4-0.9s-1.8,0.3-2.4,0.9c-0.6,0.6-0.9,1.4-0.9,2.5v9.1h-5.1V20.4h5.1v2.1
	c0.5-0.7,1.2-1.3,2-1.7s1.8-0.6,2.8-0.6c1.3,0,2.4,0.3,3.4,0.8c1,0.5,1.8,1.3,2.3,2.3c0.6-0.9,1.4-1.7,2.4-2.2s2.1-0.9,3.3-0.9
	C127.9,20.3,129.5,20.9,130.8,22.1z M139.4,36.4c-1.3-0.7-2.3-1.7-3.1-3s-1.1-2.8-1.1-4.6c0-1.7,0.4-3.2,1.1-4.5
	c0.8-1.3,1.8-2.3,3.1-3c1.3-0.7,2.8-1.1,4.4-1.1s3.1,0.4,4.4,1.1c1.3,0.7,2.4,1.7,3.1,3c0.8,1.3,1.1,2.8,1.1,4.5
	c0,1.7-0.4,3.2-1.2,4.5c-0.8,1.3-1.8,2.3-3.1,3c-1.3,0.7-2.8,1-4.5,1C142.2,37.4,140.7,37.1,139.4,36.4z M146.3,31.9
	c0.7-0.7,1-1.8,1-3.1s-0.3-2.4-1-3.1c-0.7-0.7-1.5-1.1-2.5-1.1c-1,0-1.8,0.4-2.5,1.1c-0.7,0.7-1,1.7-1,3.1c0,1.3,0.3,2.4,1,3.1
	c0.6,0.7,1.5,1.1,2.4,1.1C144.8,33,145.6,32.6,146.3,31.9z M160.4,15v22.2h-5.1V15H160.4z M30.1,45.7c-1.7-0.4,4.8-22,0-24.1
	c-3.9-1.7-13.2,10.1-11.9,11.9c0.8,1.1,5.5-1.9,7.3,0c1,1.1,0.9,3.3,0,4.8c-2.5,4-12.6,4.6-18,0c-6.2-5.3-5.8-17.1,0-23.8
	c7.3-8.4,22.3-7.7,28.9,0C46.3,25.9,31.8,46.1,30.1,45.7z"/>
</svg>
